<svg version="1.0" class="logo" xmlns="http://www.w3.org/2000/svg"
 width="200.000000pt" height="200.000000pt" viewBox="0 0 200.000000 200.000000"
 preserveAspectRatio="xMidYMid meet">
<g transform="translate(0.000000,200.000000) scale(0.100000,-0.100000)"
fill="#000000" stroke="none">
<path d="M297 1932 c-25 -28 -21 -55 23 -145 48 -99 80 -228 80 -320 0 -89
-29 -176 -123 -364 -91 -182 -122 -260 -153 -381 -41 -162 -31 -312 30 -436
37 -75 119 -171 174 -203 l47 -28 222 -3 c209 -3 224 -2 272 18 28 12 55 28
61 35 9 11 23 7 72 -18 l61 -32 251 0 251 0 64 35 c94 51 198 174 242 288 33
85 38 243 11 351 -40 158 -146 345 -276 489 -36 40 -66 80 -66 90 0 9 7 60 15
112 19 122 19 117 -10 145 -24 25 -24 25 -235 25 l-211 0 -25 -25 c-19 -19
-24 -33 -20 -53 3 -15 10 -69 17 -120 13 -105 22 -82 -76 -200 -27 -34 -53
-61 -56 -61 -11 -2 -99 196 -110 249 -14 65 -6 182 16 260 9 30 37 99 62 153
l47 97 -21 28 -20 27 -300 3 c-280 2 -301 1 -316 -16z m473 -116 c0 -3 -14
-47 -32 -98 -26 -77 -32 -113 -36 -208 -6 -153 5 -199 87 -366 l68 -140 -33
-65 c-18 -35 -47 -106 -64 -157 -67 -204 -45 -386 64 -531 14 -19 26 -38 26
-41 0 -22 -65 -30 -246 -30 l-195 0 -55 52 c-101 95 -146 237 -124 386 18 114
52 207 166 444 133 276 150 347 123 520 -9 59 -36 152 -64 221 -7 16 4 17 154
17 89 0 161 -2 161 -4z m657 -370 c-14 -36 -19 -156 -7 -190 6 -20 45 -75 85
-121 249 -285 329 -558 223 -757 -38 -71 -124 -163 -172 -183 -50 -21 -441
-22 -491 -1 -39 17 -111 87 -156 152 -47 69 -61 119 -62 219 0 180 94 380 276
582 77 87 91 126 77 223 -5 36 -10 71 -10 78 0 9 31 12 121 12 100 0 120 -2
116 -14z"/>
<path d="M1490 805 l-24 -26 28 -80 c30 -83 36 -161 17 -197 -6 -12 -29 -42
-51 -67 -44 -50 -48 -69 -24 -103 10 -15 25 -22 49 -22 28 0 41 9 79 52 62 71
79 111 84 193 3 57 -1 86 -23 150 -41 122 -84 154 -135 100z"/>
</g>
</svg>
